<?xml version="1.0" encoding="utf-8"?>
<!-- Generator: Adobe Illustrator 23.0.5, SVG Export Plug-In . SVG Version: 6.00 Build 0)  -->
<svg version="1.1" id="Layer_1" xmlns="http://www.w3.org/2000/svg" xmlns:xlink="http://www.w3.org/1999/xlink" x="0px" y="0px"
	 viewBox="0 0 30 30" style="enable-background:new 0 0 30 30;" xml:space="preserve">
<style type="text/css">
	.st0{fill:#080707;}
	.st1{fill:#060605;}
	.st2{fill:#040404;}
	.st3{fill:#060505;}
</style>
<g>
	<g>
		<path class="st1" d="M21.6,9.1c-0.8,0-1.6-0.2-2.4-0.5l-2.8-1.4c-0.9-0.4-1.9-0.4-2.8,0l-3,1.4c-1.4,0.7-3,0.7-4.5,0.1L0.7,6.3
			C0.1,6.1-0.2,5.4,0.1,4.8C0.3,4.3,1,4,1.6,4.3L7,6.6c0.8,0.4,1.8,0.3,2.6,0l3-1.4c1.5-0.7,3.2-0.7,4.7,0l2.8,1.4
			c0.8,0.4,1.8,0.4,2.6,0.1l5.7-2.3c0.6-0.2,1.2,0,1.5,0.6s0,1.2-0.6,1.5l-5.7,2.3C23,8.9,22.3,9.1,21.6,9.1z"/>
	</g>
	<g>
		<path class="st1" d="M1.1,17.4c-0.4,0-0.9-0.3-1-0.7c-0.2-0.6,0-1.2,0.6-1.5l5.7-2.3c1.4-0.6,3.1-0.6,4.5,0.1l2.8,1.4
			c0.9,0.4,1.9,0.4,2.8,0l3-1.4c1.4-0.7,3-0.7,4.5-0.1l5.4,2.3c0.6,0.2,0.8,0.9,0.6,1.5c-0.2,0.6-0.9,0.8-1.5,0.6L23,15
			c-0.8-0.4-1.8-0.3-2.6,0l-3,1.4c-1.5,0.7-3.2,0.7-4.7,0L9.8,15c-0.8-0.4-1.8-0.4-2.6-0.1l-5.7,2.3C1.4,17.3,1.3,17.4,1.1,17.4z"/>
	</g>
	<g>
		<path class="st1" d="M1.1,25.8c-0.4,0-0.9-0.3-1-0.7c-0.2-0.6,0-1.2,0.6-1.5l5.7-2.3c1.4-0.6,3.1-0.6,4.5,0.1l2.8,1.4
			c0.9,0.4,1.9,0.4,2.8,0l3-1.4c1.4-0.7,3-0.7,4.5-0.1l5.4,2.3c0.6,0.2,0.8,0.9,0.6,1.5c-0.2,0.6-0.9,0.8-1.5,0.6L23,23.4
			c-0.8-0.4-1.8-0.3-2.6,0l-3,1.4c-1.5,0.7-3.2,0.7-4.7,0l-2.8-1.4c-0.8-0.4-1.8-0.4-2.6-0.1l-5.7,2.3C1.4,25.8,1.3,25.8,1.1,25.8z"
			/>
	</g>
</g>
</svg>
