<?xml version="1.0" encoding="utf-8"?>
<!-- Generator: Adobe Illustrator 23.0.5, SVG Export Plug-In . SVG Version: 6.00 Build 0)  -->
<svg version="1.1" id="Layer_1" xmlns="http://www.w3.org/2000/svg" xmlns:xlink="http://www.w3.org/1999/xlink" x="0px" y="0px"
	 viewBox="0 0 30 30" style="enable-background:new 0 0 30 30;" xml:space="preserve">
<style type="text/css">
	.st0{fill:#080707;}
	.st1{fill:#060605;}
	.st2{fill:#040404;}
	.st3{fill:#060505;}
</style>
<g>
	<path class="st1" d="M0,19.3c0.1,0,0.1-0.1,0.1-0.2c0.2-0.3,0.5-0.6,0.9-0.6c0.1,0,0.2,0,0.3,0c6,0,12.1,0,18.1,0
		c2.5,0,4.7,1.4,5.5,3.7c1.3,3.5-0.9,7.3-4.6,7.8c-3.1,0.4-6-1.7-6.5-4.8c-0.1-0.3-0.1-0.7-0.1-1c0-0.6,0.5-1.2,1.2-1.2
		c0.6,0,1.2,0.5,1.2,1.1c0.1,1.9,1.3,3.3,3.2,3.5c1.7,0.1,3.3-1,3.6-2.8c0.4-2.2-1.2-4.1-3.4-4.1c-6,0-12,0-18,0
		c-0.7,0-1.3-0.2-1.5-0.9C0,19.7,0,19.5,0,19.3z"/>
	<path class="st2" d="M30,11.1c-0.1,0.4-0.2,0.7-0.3,1.1c-0.8,2.4-3,4-5.5,4c-6.1,0-12.2,0-18.3,0c-0.8,0-1.3-0.5-1.3-1.2
		c0-0.7,0.5-1.2,1.3-1.2c6.1,0,12.1,0,18.2,0c1.7,0,3-1,3.4-2.7C28,9.3,26.8,7.4,24.9,7c-2.1-0.4-4,1.1-4.1,3.3
		c0,0.7-0.5,1.2-1.2,1.2c-0.7,0-1.2-0.6-1.1-1.3c0.1-2.9,2.2-5.3,5.1-5.6c3.1-0.4,6,1.8,6.4,4.9c0,0,0,0.1,0.1,0.1
		C30,10.2,30,10.6,30,11.1z"/>
	<path class="st1" d="M0,10.1c0.3-0.7,0.8-0.9,1.5-0.9c3.2,0,6.3,0,9.5,0c1.8,0,3.1-1.1,3.5-2.8c0.4-1.8-1-3.8-2.8-4
		C9.8,2.2,8.2,3.3,7.8,5.1c-0.1,0.2,0,0.5-0.1,0.7C7.6,6.5,7.1,7,6.5,7c-0.6,0-1.1-0.6-1.1-1.2c0-1.9,0.9-3.5,2.4-4.7
		c0.7-0.5,1.6-0.9,2.5-1c0,0,0.1,0,0.1-0.1c0.5,0,0.9,0,1.4,0c0.3,0.1,0.7,0.1,1,0.2C15.3,1,17,3.3,16.9,6c-0.1,2.8-2.3,5.3-5.1,5.6
		c-0.3,0-0.6,0-0.9,0c-3.1,0-6.2,0-9.3,0c-0.7,0-1.3-0.2-1.6-0.9C0,10.5,0,10.3,0,10.1z"/>
</g>
</svg>
