<?xml version="1.0" encoding="utf-8"?>
<!-- Generator: Adobe Illustrator 23.0.5, SVG Export Plug-In . SVG Version: 6.00 Build 0)  -->
<svg version="1.1" id="Layer_1" xmlns="http://www.w3.org/2000/svg" xmlns:xlink="http://www.w3.org/1999/xlink" x="0px" y="0px"
	 viewBox="0 0 30 30" style="enable-background:new 0 0 30 30;" xml:space="preserve">
<style type="text/css">
	.st0{fill:#080707;}
	.st1{fill:#060605;}
	.st2{fill:#040404;}
	.st3{fill:#060505;}
</style>
<path class="st3" d="M30,19.3c-0.1,0.2-0.1,0.4-0.2,0.6c-0.6,2.3-2.7,3.9-5.1,3.9c-6.5,0-13,0-19.4,0c-3.1,0-5.5-2.7-5.3-5.7
	c0.2-2.2,2-4.3,4.2-4.7c0.2,0,0.3-0.1,0.3-0.3c0-3.3,2.5-6.2,5.7-6.7c3-0.5,5.4,0.6,7.2,3.1c0.1,0.1,0.1,0.1,0.3,0.1
	c3.2-1.7,7,0,7.7,3.5c0,0.2,0.1,0.3,0.3,0.3c2.1,0.4,3.9,2.2,4.2,4.4c0,0,0,0,0.1,0.1C30,18.3,30,18.8,30,19.3z M6.5,15
	C5.9,15,5.3,15,4.8,15c-2,0.3-3.4,2.3-2.9,4.2C2.3,20.9,3.7,22,5.4,22c6.3,0,12.6,0,18.9,0c0.3,0,0.6,0,0.9-0.1
	c2-0.2,3.4-2.3,2.9-4.2c-0.4-1.7-1.8-2.8-3.7-2.8c-0.7,0-0.7,0-0.7-0.7c0-1-0.3-1.8-0.9-2.5c-1.3-1.5-3.6-1.6-5-0.2
	c-0.3,0.3-0.7,0.6-1,1c-1-4-4.4-5.1-6.8-4.4c-1.2,0.4-2.2,1.1-3,2.2C6.1,11.8,6.1,13.3,6.5,15z"/>
</svg>
