<?xml version="1.0" encoding="utf-8"?>
<!-- Generator: Adobe Illustrator 23.0.5, SVG Export Plug-In . SVG Version: 6.00 Build 0)  -->
<svg version="1.1" id="Layer_1" xmlns="http://www.w3.org/2000/svg" xmlns:xlink="http://www.w3.org/1999/xlink" x="0px" y="0px"
	 viewBox="0 0 30 30" style="enable-background:new 0 0 30 30;" xml:space="preserve">
<style type="text/css">
	.st0{fill:#080707;}
	.st1{fill:#060605;}
	.st2{fill:#040404;}
	.st3{fill:#060505;}
</style>
<g>
	<path class="st0" d="M0,14.5c0.7-1.4,1.9-2.4,3-3.5c2-1.9,4.2-3.5,6.7-4.6c2-0.9,4.2-1.3,6.4-1.1c2.1,0.2,4.1,0.9,5.9,1.9
		c2.9,1.6,5.3,3.8,7.4,6.3c0.8,0.9,0.7,1.9,0,2.8c-2,2.3-4.2,4.3-6.8,5.9c-1.7,1-3.5,1.8-5.4,2.2c-2.1,0.4-4.2,0.2-6.2-0.4
		c-2.4-0.8-4.5-2-6.4-3.6c-1.5-1.2-2.9-2.6-4.1-4.1c-0.2-0.3-0.3-0.6-0.5-0.9C0,15.2,0,14.8,0,14.5z M15,7.2c-1.8,0-3.5,0.5-5.1,1.3
		C6.7,9.9,4.2,12.2,2,14.8c-0.1,0.2-0.1,0.3,0,0.4c1.9,2.2,4,4.1,6.4,5.6c1.8,1.1,3.8,1.9,5.9,2c1.9,0.1,3.8-0.3,5.5-1.1
		c3.3-1.5,5.9-3.8,8.2-6.5c0.1-0.1,0.1-0.2,0-0.4c-0.3-0.4-0.7-0.8-1-1.1c-1.9-2-4-3.8-6.5-5.1C18.8,7.7,17,7.2,15,7.2z"/>
	<path class="st0" d="M15,8.5c3.6,0,6.5,2.9,6.5,6.5c0,3.6-2.9,6.5-6.5,6.5c-3.6,0-6.5-2.9-6.5-6.5C8.5,11.4,11.4,8.5,15,8.5z
		 M15,10.4c-2.5,0-4.6,2-4.6,4.6c0,2.5,2,4.6,4.6,4.6c2.5,0,4.6-2,4.6-4.6C19.6,12.5,17.6,10.4,15,10.4z"/>
</g>
</svg>
