<?xml version="1.0" encoding="utf-8"?>
<!-- Generator: Adobe Illustrator 23.0.5, SVG Export Plug-In . SVG Version: 6.00 Build 0)  -->
<svg version="1.1" id="Layer_1" xmlns="http://www.w3.org/2000/svg" xmlns:xlink="http://www.w3.org/1999/xlink" x="0px" y="0px"
	 viewBox="0 0 30 30" style="enable-background:new 0 0 30 30;" xml:space="preserve">
<style type="text/css">
	.st0{fill:#080707;}
	.st1{fill:#060605;}
	.st2{fill:#040404;}
	.st3{fill:#060505;}
</style>
<g>
	<path class="st0" d="M10.8,30c-5.2,0-9.6-3.6-10.6-8.7c-0.4-2.1,0-4,0.7-5.9C2,12.6,3.5,10,5,7.5c1.5-2.4,3.1-4.7,4.7-6.9
		c0.5-0.7,1.4-0.7,1.9,0c2.9,4,5.7,8.1,7.9,12.6c0.6,1.3,1.2,2.6,1.6,3.9c0.1,0.2,0.1,0.3,0.3,0.1c1.8-1.5,4.4-1.4,6,0.2
		c0.4,0.4,0.9,0.6,1.5,0.6c0.7,0,1.1,0.5,1.1,1.1c0,0.6-0.5,1-1.1,1c-1.1,0-2-0.4-2.8-1.1c-0.4-0.4-0.8-0.7-1.4-0.8
		c-0.8-0.1-1.4,0.1-2,0.6c-1,0.9-2.1,1.3-3.4,1.2c-1.1-0.1-2-0.5-2.8-1.2c-0.8-0.7-1.6-0.9-2.6-0.5c-0.3,0.1-0.5,0.3-0.7,0.5
		c-0.8,0.8-1.8,1.2-3,1.2C9.5,20.1,9,19.6,9,19c0-0.6,0.5-1.1,1.1-1.1c0.6,0,1.1-0.2,1.6-0.6c1.9-1.7,4.3-1.7,6.2,0
		c0.3,0.2,0.6,0.4,0.9,0.5c0.1,0,0.2,0.1,0.2,0c0,0,0-0.1,0-0.2c-0.3-1.1-0.7-2.1-1.2-3.1c-1.6-3.4-3.6-6.6-5.7-9.7
		c-0.4-0.6-0.8-1.2-1.3-1.8c-0.1-0.1-0.1-0.2-0.3,0c-2.8,4-5.5,8.1-7.5,12.6c-0.4,1-0.8,1.9-0.9,3c-0.2,1.5,0.1,2.8,0.7,4.2
		c1.3,2.8,3.6,4.5,6.7,5c2,0.3,3.8-0.1,5.5-1.2c0.2-0.1,0.4-0.3,0.7-0.4c0.5-0.1,1,0.2,1.2,0.6c0.2,0.5,0,1-0.4,1.3
		c-1.1,0.7-2.2,1.2-3.5,1.5C12.3,29.9,11.5,30,10.8,30z"/>
	<path class="st0" d="M25.2,13.9c-2.8,0-5-2.3-4.8-5.1c0.1-0.8,0.4-1.6,0.7-2.3c0.9-1.8,2-3.4,3.2-5c0.5-0.6,1.3-0.6,1.7,0
		c1.4,1.9,2.7,3.8,3.6,5.9C30.9,10.5,28.5,14,25.2,13.9z M25.2,11.8c1.9,0,3.2-1.9,2.5-3.5c-0.6-1.5-1.5-2.8-2.4-4.1
		c-0.1-0.2-0.2-0.1-0.2,0c-0.8,1.2-1.6,2.4-2.2,3.7c-0.2,0.4-0.4,0.9-0.4,1.3C22.5,10.6,23.8,11.8,25.2,11.8z"/>
	<path class="st0" d="M14.8,20.5c1.1,0,2.1,0.4,3,1.2c1,0.9,2.3,1,3.4,0c1.8-1.6,4.4-1.6,6.1,0c0.5,0.4,1,0.6,1.6,0.7
		c0.6,0,1.1,0.5,1.1,1.1c0,0.6-0.5,1.1-1.1,1.1c-1.2,0-2.2-0.4-3.1-1.2c-0.8-0.7-1.8-0.9-2.7-0.4c-0.2,0.1-0.4,0.3-0.6,0.4
		c-1.8,1.6-4.3,1.6-6.1,0c-1-0.9-2.3-0.9-3.3,0c-0.9,0.8-1.9,1.2-3.1,1.2C9.5,24.5,9,24,9,23.4c0-0.6,0.5-1.1,1.1-1.1
		c0.6,0,1.2-0.2,1.7-0.7C12.6,20.9,13.6,20.5,14.8,20.5z"/>
</g>
</svg>
