<?xml version="1.0" encoding="utf-8"?>
<!-- Generator: Adobe Illustrator 23.0.5, SVG Export Plug-In . SVG Version: 6.00 Build 0)  -->
<svg version="1.1" id="Layer_1" xmlns="http://www.w3.org/2000/svg" xmlns:xlink="http://www.w3.org/1999/xlink" x="0px" y="0px"
	 viewBox="0 0 55 55" style="enable-background:new 0 0 55 55;" xml:space="preserve">
<style type="text/css">
	.st0{fill:#FFFFFF;}
</style>
<g>
	<path class="st0" d="M2.1,46.1c-0.1,0-0.3,0-0.4,0c-0.9,0-1.5-0.5-1.6-1.4c0.1-0.9,0.7-1.4,1.6-1.4c0.1,0,0.3,0,0.4,0
		c0.5,0,0.9,0,1.4,0c0.5,0,0.9,0,1.4,0c0.5,0,0.9,0,1.4,0c0.5,0,0.9,0,1.4,0c0.5,0,0.9,0,1.4,0c0.5,0,0.9,0,1.4,0c0.5,0,0.9,0,1.4,0
		c0.5,0,0.9,0,1.4,0c0.5,0,0.9,0,1.4,0c0.5,0,0.9,0,1.4,0c0.5,0,0.9,0.1,1.4,0c1.4-1.1,2.8-2.3,4.1-3.5c0.2-0.1,0.4-0.3,0.6-0.5
		c0.3-0.2,0.6-0.4,0.8-0.7c0.3-0.2,0.6-0.4,0.8-0.7c0.2-0.1,0.4-0.3,0.6-0.5c0.4-0.3,0.7-0.6,1-0.9c0.1-0.1,0.2-0.2,0.3-0.3
		c0.5-0.3,0.9-0.7,1.3-1.1c0,0,0.1,0,0.1-0.1c0.4-0.3,0.4-0.3,0.8,0.1c1.1,0.9,2.2,1.9,3.3,2.8c0.4,0.4,0.9,0.8,1.4,1.2
		c0,0.1,0.1,0.1,0.2,0.2c0.4,0.4,0.8,0.7,1.2,1c0.1,0.1,0.3,0.3,0.4,0.4c0.3,0.3,0.6,0.6,1,0.8c0.2,0.2,0.4,0.4,0.6,0.5
		c0.2,0.2,0.5,0.5,0.7,0.6c0.4,0.4,0.7,0.8,1.4,0.7c0.5,0,0.9,0,1.4,0c0.5,0,0.9,0,1.4,0c0.5,0,0.9,0,1.4,0c0.5,0,0.9,0,1.4,0
		c0.5,0,0.9,0,1.4,0c0.5,0,0.9,0,1.4,0c0.5,0,0.9,0,1.4,0c0.5,0,0.9,0,1.4,0c0.5,0,0.9,0,1.4,0c0.5,0,0.9,0,1.4,0c0.5,0,0.9,0,1.4,0
		c0.2,0,0.5,0.1,0.7,0.1c0.2,0.2,0.5,0.3,0.7,0.5c0.2,0.3,0.4,0.5,0.6,0.8c-0.1,1-0.6,1.4-1.5,1.4c-0.2,0-0.3,0-0.5,0
		c-0.5,0-0.9,0-1.4,0c-0.5,0-0.9,0-1.4,0c-0.5,0-0.9,0-1.4,0c-0.5,0-0.9,0-1.4,0c-0.5,0-0.9,0-1.4,0c-0.5,0-0.9,0-1.4,0
		c-0.5,0-0.9,0-1.4,0c-0.5,0-0.9,0-1.4,0c-0.5,0-0.9,0-1.4,0c-0.5,0-0.9,0-1.4,0c-0.5,0-0.9,0-1.4,0c-0.5,0-0.9,0-1.4,0
		c-0.2,0-0.3,0-0.5-0.1c-0.3-0.3-0.6-0.5-0.9-0.7c-0.3-0.2-0.5-0.4-0.8-0.6c-0.2-0.2-0.4-0.4-0.6-0.5c-0.9-0.8-1.8-1.5-2.7-2.3
		c-0.5-0.4-0.9-0.8-1.4-1.2c-0.1-0.1-0.2-0.2-0.3-0.3c-0.3-0.3-0.7-0.6-1-0.9c-0.7-0.7-0.7-0.7-1.4-0.1c0,0,0,0,0,0
		c-0.4,0.3-0.7,0.6-1.1,0.9c-0.1,0-0.2,0.1-0.3,0.2c-1.4,1.1-2.8,2.3-4.1,3.4c-0.2,0.1-0.4,0.3-0.6,0.5c-0.3,0.2-0.6,0.4-0.8,0.7
		c-0.3,0.2-0.6,0.5-0.9,0.8c-0.1,0.1-0.3,0.1-0.5,0.1c-0.5,0-0.9,0-1.4,0c-0.5,0-0.9,0-1.4,0c-0.5,0-0.9,0-1.4,0c-0.5,0-0.9,0-1.4,0
		c-0.5,0-0.9,0-1.4,0c-0.5,0-0.9,0-1.4,0c-0.5,0-0.9,0-1.4,0c-0.5,0-0.9,0-1.4,0c-0.5,0-0.9,0-1.4,0c-0.5,0-0.9,0-1.4,0
		c-0.5,0-0.9,0-1.4,0C3,46.1,2.5,46.1,2.1,46.1z"/>
	<path class="st0" d="M54.4,35c0.3,0.4,0.4,0.9,0.3,1.4c-0.1,0.2-0.2,0.5-0.3,0.7c-0.4,0.4-0.9,0.4-1.4,0.4c-0.5,0-0.9,0-1.4,0
		c-0.5,0-0.9,0-1.4,0c-0.5,0-0.9,0-1.4,0c-0.5,0-0.9,0-1.4,0c-0.6-0.1-1-0.3-1.3-0.9c0-0.1,0-0.1-0.1-0.2c0-1,0.4-1.5,1.4-1.8
		c0.5,0,0.9,0,1.4,0c0.5,0,0.9,0,1.4,0c0.5,0,0.9,0,1.4,0c0.5,0,0.9,0,1.4,0C53.5,34.6,54,34.7,54.4,35L54.4,35z"/>
	<path class="st0" d="M26.9,8.9c1.1-0.1,1.6,0.2,1.8,1.3c0,0.5,0,0.9,0,1.4c0,0.5,0,0.9,0,1.4c0,0.5,0,0.9,0,1.4c0,0.5,0,0.9,0,1.4
		c0,0.5-0.1,1-0.5,1.4c-0.4,0.3-0.9,0.4-1.4,0.3c-0.2-0.1-0.3-0.2-0.5-0.3c-0.4-0.4-0.6-0.8-0.5-1.4c0-0.5,0-0.9,0-1.4
		c0-0.5,0-0.9,0-1.4c0-0.5,0-0.9,0-1.4c0-0.5,0-0.9,0-1.4c0-0.6,0.3-1,0.9-1.3C26.7,9,26.8,8.9,26.9,8.9z"/>
	<path class="st0" d="M0.7,37.3c-0.3-0.2-0.6-0.5-0.7-0.9c-0.1-0.5,0.1-1,0.5-1.4c0.1-0.1,0.1-0.1,0.2-0.2c0.4-0.3,0.9-0.2,1.4-0.2
		c0.5,0,0.9,0,1.4,0c0.5,0,0.9,0,1.4,0c0.5,0,0.9,0,1.4,0c0.5,0,0.9,0,1.4,0.1c0.7,0.3,1,0.7,1,1.4c0,0.7-0.3,1.1-1,1.4
		c-0.5,0-0.9,0-1.4,0.1c-0.5,0-0.9,0-1.4,0c-0.5,0-0.9,0-1.4,0c-0.5,0-0.9,0-1.4,0C1.6,37.5,1.1,37.5,0.7,37.3z"/>
	<path class="st0" d="M11.7,37.5c-0.2,0-0.2-0.1-0.2-0.2c0-0.3,0-0.6,0-0.9c0-0.5,0-0.9,0-1.4c0.1-0.5,0.1-0.9,0.2-1.4
		c0.1-0.2,0.1-0.5,0.1-0.7c0.3-1.2,0.7-2.3,1.1-3.4c0.1-0.2,0.2-0.3,0.2-0.5c0.2-0.3,0.3-0.6,0.5-0.9c0.6-1,1.3-1.9,2.1-2.8
		c0.1,0,0.1-0.1,0.1-0.1c0.4-0.4,0.9-0.8,1.3-1.2c0,0,0,0,0.1-0.1c0.9-0.7,1.8-1.3,2.8-1.8c0.9-0.4,1.8-0.8,2.7-1.1
		c0.5-0.1,0.9-0.2,1.4-0.3c0.5-0.1,0.9-0.1,1.4-0.2c0.5,0,0.9-0.1,1.4-0.1c0.5,0,0.9,0,1.4,0c0.5,0,0.9,0.1,1.4,0.1
		c0.5,0.1,0.9,0.2,1.4,0.3c0.5,0.1,0.9,0.3,1.4,0.4c0.9,0.4,1.9,0.8,2.7,1.3c0.1,0.1,0.2,0.2,0.3,0.2c0.3,0.2,0.7,0.5,1,0.7
		c0.3,0.2,0.6,0.4,0.8,0.7c0.2,0.2,0.4,0.3,0.5,0.5c0.3,0.3,0.6,0.6,0.9,0.9c0.2,0.2,0.3,0.3,0.5,0.5c0.2,0.3,0.5,0.6,0.7,0.9
		c0.2,0.3,0.4,0.6,0.6,0.9c0.1,0.2,0.2,0.3,0.3,0.5c0.5,0.9,0.9,1.8,1.3,2.8c0.1,0.5,0.3,0.9,0.4,1.4c0.2,1.1,0.4,2.2,0.4,3.3
		c0,0.3,0,0.6,0,0.9c0,0.3,0,0.7,0,1c0,0-0.1,0.1-0.1,0.1c-0.9,0-1.8,0-2.7,0c0-0.4,0-0.7,0-1.1c0-0.5,0-0.9-0.1-1.4
		c0-0.5-0.1-0.9-0.2-1.4c-0.1-0.3-0.1-0.6-0.2-0.9c-0.2-0.6-0.3-1.3-0.6-1.9c-0.2-0.5-0.4-0.9-0.7-1.4c-0.1-0.3-0.3-0.5-0.5-0.7
		c-0.1-0.2-0.3-0.5-0.5-0.7c-0.3-0.4-0.6-0.7-0.9-1c-0.1-0.1-0.2-0.2-0.3-0.3c-0.3-0.3-0.7-0.6-1-0.9c-0.2-0.2-0.4-0.3-0.7-0.5
		c-0.2-0.2-0.5-0.3-0.7-0.5c-0.4-0.3-0.8-0.5-1.3-0.6c-0.9-0.4-1.9-0.7-2.8-0.9c-0.5-0.1-0.9-0.2-1.4-0.2c-0.5-0.1-0.9-0.1-1.4,0
		c-0.5,0-0.9,0-1.4,0.1c-1,0.1-1.9,0.3-2.8,0.7c-0.5,0.1-0.9,0.3-1.4,0.6c-0.5,0.2-0.9,0.5-1.3,0.8c0,0,0,0-0.1,0
		c-1.6,1.1-2.9,2.4-3.8,4.1c-0.1,0.2-0.2,0.3-0.3,0.5c-0.2,0.3-0.3,0.5-0.4,0.8c-0.2,0.4-0.4,0.9-0.5,1.4c-0.2,0.4-0.3,0.9-0.3,1.4
		c-0.1,0.4-0.2,0.9-0.2,1.4c-0.1,0.7-0.1,1.5-0.1,2.2c0,0.2-0.1,0.3-0.3,0.3c-0.3,0-0.7,0-1,0C12.6,37.5,12.2,37.5,11.7,37.5z"/>
	<path class="st0" d="M9,16.5c0.6,0,1,0.3,1.4,0.7c0,0,0,0,0,0c0.4,0.5,0.9,0.9,1.4,1.4l0,0c0.4,0.5,0.9,0.9,1.4,1.4
		c0.3,0.3,0.6,0.6,0.9,0.9c0.4,0.4,0.7,0.9,0.5,1.5c-0.2,0.6-0.7,0.9-1.3,1c-0.5,0-0.9-0.3-1.3-0.7c0-0.1-0.1-0.1-0.2-0.1
		c-0.4-0.4-0.8-0.8-1.2-1.2c0-0.1-0.1-0.1-0.1-0.1c-0.4-0.4-0.8-0.8-1.2-1.2c0-0.1-0.1-0.1-0.1-0.1c-0.3-0.3-0.5-0.5-0.8-0.8
		c-0.4-0.4-0.6-0.9-0.4-1.5C7.9,16.9,8.3,16.6,9,16.5C8.9,16.5,8.9,16.5,9,16.5z"/>
	<path class="st0" d="M44.7,16.6c0.5-0.2,0.9-0.2,1.4,0c0.2,0.2,0.3,0.3,0.5,0.5c0.2,0.4,0.3,0.9,0.1,1.4c-0.2,0.3-0.4,0.5-0.6,0.7
		c-0.2,0.2-0.5,0.4-0.7,0.7c-0.2,0.2-0.5,0.5-0.7,0.7c-0.2,0.2-0.5,0.4-0.7,0.7c-0.2,0.2-0.5,0.5-0.7,0.7c-0.2,0.2-0.5,0.4-0.7,0.7
		c-0.3,0.2-0.4,0.5-0.7,0.6c-0.5,0.1-0.9,0-1.4-0.2c-0.2-0.2-0.3-0.3-0.5-0.5c-0.2-0.4-0.2-0.9,0-1.4c0.2-0.2,0.3-0.4,0.5-0.6
		c0.3-0.2,0.5-0.5,0.8-0.8c0.2-0.2,0.4-0.4,0.6-0.6c0.3-0.2,0.5-0.5,0.8-0.8c0.2-0.2,0.4-0.4,0.6-0.6c0.3-0.2,0.5-0.5,0.8-0.8
		C44.3,17,44.5,16.8,44.7,16.6z"/>
</g>
</svg>
