<?xml version="1.0" encoding="utf-8"?>
<!-- Generator: Adobe Illustrator 23.0.5, SVG Export Plug-In . SVG Version: 6.00 Build 0)  -->
<svg version="1.1" id="Layer_1" xmlns="http://www.w3.org/2000/svg" xmlns:xlink="http://www.w3.org/1999/xlink" x="0px" y="0px"
	 viewBox="0 0 300 95" style="enable-background:new 0 0 300 95;" xml:space="preserve">
<style type="text/css">
	.st0{fill:#5EA5DA;}
	.st1{fill:#FE761C;}
</style>
<g>
	<path class="st0" d="M205.4,66.3c0-8.8,0.1-17.5,0-26.3c0-1.9,0.5-2.4,2.4-2.4c7.6,0.1,15.2,0,22.9,0.1c11.4,0.1,20,8.3,21.1,19.8
		c0.5,5.9,0.1,11.5-3.9,16.3c-1,1.2,0,1.7,0.6,2.4c4.3,4.8,6.5,10.5,7,16.9c0.1,1.6-0.3,2.2-2,2.1c-2.7-0.1-5.3-0.1-8,0
		c-1.2,0-1.9-0.2-2-1.7c-0.1-1.7-0.5-3.5-1.2-5.1c-2-4.7-5.4-7.1-10.5-7.1c-3.9,0-7.8,0.1-11.7,0c-2-0.1-2.9,0.4-2.7,2.6
		c0.2,3.1,0,6.2,0.1,9.3c0.1,1.7-0.5,2.1-2.1,2.1c-2.6-0.1-5.1-0.1-7.7,0c-1.8,0.1-2.2-0.6-2.2-2.3C205.4,84,205.4,75.2,205.4,66.3z
		 M217.4,59.3c0,2.7,0,5.3,0,8c0,1.3,0.3,1.9,1.7,1.9c4.5-0.1,9,0.1,13.5-0.1c3.7-0.1,6.6-2.5,7.1-5.6c0.5-3.2,0.2-6.3-1.4-9.3
		c-1.5-2.7-3.6-4.3-6.8-4.4c-4.2-0.1-8.3,0-12.5-0.1c-1.4,0-1.9,0.5-1.8,1.9C217.4,54.1,217.4,56.7,217.4,59.3z"/>
	<path class="st0" d="M0,66.4c0-8.8,0.1-17.5,0-26.3c0-2,0.6-2.5,2.5-2.5c7.4,0.1,14.9,0,22.3,0.1c12,0.1,20.7,8.5,21.5,20.5
		c0.4,5.6-0.1,11-3.9,15.5c-1.1,1.3,0,1.9,0.7,2.6c4.2,4.8,6.3,10.4,6.9,16.6c0.2,1.7-0.3,2.4-2.1,2.3c-2.1-0.2-4.3-0.2-6.4,0
		c-2.5,0.3-3.6-0.5-3.8-3.1c-0.3-3.6-1.9-6.8-5-9c-1.6-1.1-3.5-1.8-5.5-1.8c-4.4,0-8.9,0-13.3,0c-1.5,0-2,0.5-2,2
		c0.1,3.3,0,6.6,0.1,9.8c0,1.6-0.3,2.2-2,2.2c-2.7-0.1-5.3-0.1-8,0c-1.8,0.1-2-0.7-2-2.2C0.1,84.1,0,75.3,0,66.4z M19.5,69.1
		c3.1,0,5.4,0.1,7.7,0c3.8-0.2,6.7-2.7,7.2-6c0.4-3.2,0.1-6.4-1.6-9.3c-1.5-2.6-3.7-4-6.7-4.1c-4.1-0.1-8.2,0-12.2,0
		c-1.6,0-2,0.7-1.9,2.1c0.1,3,0,6,0,9c0,2.6-0.9,6.1,0.5,7.7C14,70.3,17.6,68.8,19.5,69.1z"/>
	<path class="st0" d="M58.4,66.4c0-8.8,0.1-17.5,0-26.3c0-1.9,0.6-2.4,2.4-2.4c11.3,0.1,22.7,0.1,34,0c1.9,0,2.5,0.7,2.4,2.5
		c-0.1,2.5-0.1,5,0,7.4c0.1,1.7-0.5,2.3-2.3,2.3c-7.3-0.1-14.5,0-21.8-0.1c-2.1,0-3.1,0.4-2.8,2.7c0.3,2.8-1.2,6.4,0.6,8.2
		c1.6,1.6,5.2,0.4,8,0.4c5,0.1,9.9,0.1,14.9,0c1.9,0,2.5,0.6,2.4,2.4c-0.1,2.6-0.1,5.1,0,7.7c0.1,1.6-0.5,2.1-2.1,2.1
		c-7.1-0.1-14.2,0-21.3-0.1c-2,0-2.5,0.5-2.5,2.5c0.1,7.2,0,7.2,7.1,7.2c5.8,0,11.7,0.1,17.5,0c1.8,0,2.3,0.6,2.3,2.3
		c-0.1,2.7-0.1,5.5,0,8.2c0,1.2-0.4,1.7-1.7,1.7c-11.8,0-23.6-0.1-35.4,0c-1.8,0-1.7-1-1.7-2.2C58.4,84.1,58.4,75.2,58.4,66.4z"/>
	<path class="st0" d="M110.5,66.2c0-8.6,0.1-17.2,0-25.8c0-2.1,0.4-2.9,2.7-2.8c8,0.2,15.9,0,23.9,0.1c11.5,0,19.4,7.6,19.8,19.1
		c0.3,8-1.5,15.2-8.3,20.2c-3.3,2.4-7,3.7-11.1,3.7c-4.4,0-8.9,0.1-13.3,0c-1.5,0-2,0.4-2,1.9c0.1,3.4-0.1,6.7,0.1,10.1
		c0.1,1.8-0.4,2.5-2.3,2.4c-2.4-0.2-4.8-0.2-7.2,0c-1.9,0.1-2.4-0.5-2.4-2.3C110.6,84,110.5,75.1,110.5,66.2z M122.3,59.3
		c0,2.5,0.1,5,0,7.4c-0.1,1.6,0.3,2.4,2.1,2.3c4.1-0.1,8.1-0.1,12.2,0c3.6,0,6.1-1.6,7.4-4.9c1.2-3.2,1.5-6.5,0.4-9.9
		c-0.9-2.8-3-4.3-6-4.4c-4.8-0.1-9.5,0-14.3,0c-1.4,0-1.9,0.4-1.8,1.8C122.4,54.1,122.3,56.7,122.3,59.3z"/>
	<path class="st0" d="M274.6,72.5c0-6.8,0-13.6,0-20.5c0-1.7-0.4-2.4-2.2-2.3c-3.1,0.1-6.2,0-9.3,0.1c-1.4,0-1.9-0.4-1.9-1.8
		c0.1-2.8,0.1-5.7,0-8.5c0-1.4,0.5-1.8,1.9-1.8c11.7,0,23.4,0,35.1,0c1.4,0,1.8,0.6,1.8,1.9c-0.1,2.7-0.1,5.3,0,8
		c0.1,1.7-0.4,2.4-2.2,2.3c-2.8-0.1-5.7,0.1-8.5-0.1c-2.1-0.1-2.7,0.5-2.7,2.6c0.1,13.3,0,26.6,0.1,39.9c0,2.4-0.7,3.1-3,2.9
		c-2.4-0.2-4.8-0.1-7.2,0c-1.7,0.1-2.1-0.6-2.1-2.1C274.6,86.2,274.6,79.4,274.6,72.5z"/>
	<path class="st0" d="M108.7,16.5c-0.9,3.9-2,7.9-2.8,11.8c-0.4,1.9-1.1,2.6-3.1,2.6c-4.1-0.2-4.2,0-5.1-4
		c-1.9-8.2-3.7-16.4-5.8-24.5c-0.5-2.1,0.1-2.5,1.9-2.3c0.6,0.1,1.2,0.1,1.9,0c1.7-0.2,2.5,0.4,2.9,2.2c0.9,4.6,2.1,9.1,3.6,13.8
		c0.6-2.2,1.1-4.4,1.7-6.6c0.5-1.8,0.9-3.6,1.3-5.4c1-4,1-3.8,5.1-4c1.9-0.1,2.6,0.6,3,2.4c0.8,4.6,1.8,9.2,3.2,13.8
		c1.3-4.6,2.6-9.1,3.8-13.7c0.6-2,5-3.5,6.6-2.2c0.6,0.5,0.3,1.1,0.2,1.7c-2.5,9.1-5.1,18.2-7.6,27.3c-0.3,1.1-0.8,1.7-2,1.5
		c-0.3,0-0.7,0-1.1,0c-4,0-4,0-4.8-3.9c-0.7-3.5-1.5-7-2.2-10.5C109.1,16.5,108.9,16.5,108.7,16.5z"/>
	<path class="st1" d="M198.5,55.5c0,9.8-7.8,17.6-17.5,17.7s-17.7-8-17.7-17.8c0-9.9,7.9-17.8,17.7-17.8
		C190.8,37.7,198.5,45.6,198.5,55.5z M191.1,55.4c0-5.6-4.7-10.3-10.3-10.3c-5.5,0-10.1,4.7-10.1,10.2c0,5.6,4.6,10.4,10.2,10.5
		C186.4,65.8,191.1,61.1,191.1,55.4z"/>
	<path class="st0" d="M273.1,15.5c0-4.3,0.1-8.7,0-13c0-1.8,0.4-2.6,2.4-2.5c4.1,0.2,8.2-0.2,12.2,0.2c8.6,1,13.2,10.5,9,18
		c-0.7,1.3-0.9,2,0.2,3.2s1.8,2.6,2.3,4.2c1.7,5,1.4,5.4-3.8,5.2c-1.3,0-1.8-0.4-2.1-1.7c-1-4.4-2.7-5.7-7.2-5.8c-0.1,0-0.2,0-0.3,0
		c-5.7,0-5.8,0-6,5.6c-0.1,1.3-0.4,2-1.8,1.9c-0.3,0-0.7,0-1.1,0c-4.2-0.1-3.7,0.5-3.7-3.6C273,23.3,273.1,19.4,273.1,15.5z
		 M279.6,11.7c0,5.3,0,5.3,5.2,5.3c1.1,0,2.3,0,3.4-0.2c2-0.4,3.2-1.7,3.2-3.9c0.1-4.1-1.8-6.1-6.1-6.2
		C279.6,6.6,279.6,6.6,279.6,11.7z"/>
	<path class="st0" d="M57.1,15.5c0-4.3,0.1-8.7,0-13c0-1.6,0.5-2.2,2.1-2.1c5.5,0.1,11,0.1,16.5,0c1.9,0,2.6,0.5,2.4,2.4
		c-0.1,0.7-0.1,1.4,0,2.1c0.2,1.5-0.5,2-2,2c-3.4-0.1-6.7,0-10.1-0.1c-1.5,0-2.2,0.2-2.2,2c0,4-0.1,4,3.9,4c2.6,0,5.1,0.1,7.7,0
		c1.6-0.1,2.2,0.3,2.2,2.1c-0.1,5.6,0.4,4.6-4.4,4.7c-2.6,0-5.1,0.1-7.7,0c-2.3,0-1.5,1.7-1.6,2.8c-0.1,1.2-0.1,2.2,1.7,2.2
		c3.5-0.1,6.9,0.1,10.4-0.1c1.8-0.1,2.4,0.6,2.2,2.3c-0.1,0.5-0.1,1.1,0,1.6c0.3,2.1-0.5,2.8-2.6,2.7c-5.4-0.2-10.8-0.1-16.2,0
		c-1.6,0-2.2-0.5-2.1-2.1C57.1,24.3,57.1,19.9,57.1,15.5z"/>
	<path class="st0" d="M214.5,15.5c0-4.3,0.1-8.7,0-13c0-1.8,0.5-2.3,2.3-2.2c5.4,0.2,4.3-0.5,4.4,4.3c0,0.4,0,0.7,0,1.1
		c0.2,2.4-1.1,5.9,0.5,7.1c2.2,1.5,5.6,0.3,8.5,0.5c1.4,0.1,1.3-0.9,1.3-1.8c0-2.9,0.1-5.8,0-8.8c0-1.6,0.3-2.4,2.2-2.3
		c5.5,0.2,4.5-0.6,4.5,4.5c0.1,7.9-0.1,15.8,0.1,23.6c0,2-0.6,2.7-2.6,2.5c-0.7-0.1-1.4-0.1-2.1,0c-1.7,0.2-2.2-0.6-2.1-2.1
		c0.1-2.2-0.1-4.4,0.1-6.6c0.1-1.8-0.4-2.6-2.3-2.4c-2.5,0.2-5.8-1-7.5,0.5s-0.3,4.9-0.6,7.4c-0.1,1.1,0.6,2.8-0.6,3.1
		c-1.7,0.5-3.7,0.3-5.5,0.1c-1-0.1-0.6-1.3-0.6-2.1C214.5,24.2,214.5,19.9,214.5,15.5z"/>
	<path class="st0" d="M132.4,15.6c0-4.3,0.1-8.7,0-13c0-1.7,0.3-2.3,2.2-2.3c5.5,0.1,11,0.1,16.5,0c1.8,0,2.2,0.7,2.2,2.3
		c-0.1,4.9,0.5,4-4,4.1c-2.7,0-5.5,0.1-8.2,0c-1.7-0.1-2.1,0.5-2.1,2.1c0.2,4.8-0.5,3.8,4,3.9c2.6,0.1,5.1,0.1,7.7,0
		c1.6-0.1,2.2,0.4,2.2,2.1c-0.2,5.7,0.6,4.5-4.6,4.6c-2.3,0.1-4.6,0.2-6.9,0c-2.3-0.2-2.3,1-2.3,2.7c-0.1,1.9,0.5,2.4,2.4,2.3
		c3.1-0.2,6.2,0.1,9.3-0.1c2.3-0.2,3,0.7,2.7,2.8c-0.1,0.4-0.1,0.9,0,1.3c0.3,1.9-0.5,2.4-2.3,2.4c-5.4-0.1-10.8-0.1-16.2,0
		c-1.7,0-2.3-0.5-2.3-2.2C132.4,24.3,132.4,20,132.4,15.6z"/>
	<path class="st0" d="M245.3,15.6c0-4.3,0.1-8.7,0-13c0-1.8,0.5-2.3,2.3-2.2c5.5,0.1,11,0.1,16.5,0c1.7,0,2.3,0.6,2,2.1
		c0,0.1,0,0.2,0,0.3c-0.1,4.8,0.5,3.9-3.9,4c-2.8,0-5.7,0.1-8.5,0c-1.5,0-2,0.4-2,1.9c-0.1,4.1-0.1,4.1,3.8,4.1c2.7,0,5.3,0.1,8,0
		c1.7-0.1,2.1,0.5,2.1,2.1c-0.1,5.6,0.6,4.5-4.4,4.6c-2.4,0.1-4.8,0.1-7.2,0c-2-0.1-2.3,0.8-2.3,2.5c0,1.6,0.1,2.7,2.2,2.5
		c3.4-0.2,6.7,0,10.1-0.1c1.6,0,2.2,0.4,2.1,2.1c-0.2,5.5,0.5,4.4-4.3,4.4c-4.8,0.1-9.6-0.1-14.4,0.1c-1.8,0-2.3-0.6-2.2-2.3
		C245.4,24.2,245.3,19.9,245.3,15.6z"/>
	<path class="st0" d="M171,0.5c3-1,4.1,0.6,5,3.3c2.7,8,5.7,16,8.5,24c1.1,3,1.1,2.9-2,3.1c-2.6,0.2-4.7-0.1-5.1-3.3
		c-0.1-0.9-0.8-1.2-1.8-1.2c-3.1,0-6.2,0-9.3,0c-1,0-1.8,0.3-1.9,1.3c-0.4,3.1-2.5,3.2-5,3.1c-3.2-0.2-3.2,0-2.1-3.1
		c2.8-7.9,5.8-15.8,8.4-23.8C166.6,1.1,167.8-0.5,171,0.5z M170.9,9.4c-0.8,2.1-1.4,3.8-2,5.5c-1.9,5.3-1.9,5.2,3.7,5.1
		c2,0,1.9-0.7,1.4-2.2C172.9,15.3,172.1,12.6,170.9,9.4z"/>
	<path class="st0" d="M26.6,15.5c0-4.3,0.1-8.7,0-13c0-1.6,0.4-2.2,2.1-2.1c5.5,0.2,4.3-0.5,4.4,4.3c0,0.1,0,0.2,0,0.3
		c0.2,2.7-1.2,6.4,0.6,7.9c1.8,1.6,5.4,0.3,8.2,0.5c1.5,0.1,1.8-0.5,1.8-1.9c-0.1-2.9,0.1-5.9-0.1-8.8C43.5,1,44,0.4,45.8,0.4
		C51,0.5,50-0.2,50,4.4c0.1,8-0.1,16,0.1,23.9c0,2-0.6,2.8-2.5,2.5c-0.5-0.1-1.1-0.1-1.6,0c-2.1,0.4-2.6-0.7-2.4-2.5
		c0.1-2.2,0-4.4,0.1-6.6c0.1-1.4-0.3-2.1-1.9-2c-2.3,0.1-4.6,0.1-6.9,0c-1.5-0.1-1.8,0.6-1.8,1.9c0.1,2.4-0.1,4.8,0,7.2
		c0.1,1.6-0.3,2.2-2,2.2c-4.5,0-4.4,0.1-4.5-4.2C26.6,22.9,26.6,19.2,26.6,15.5z"/>
	<path class="st0" d="M195.3,18.5c0-3.2-0.1-6.4,0-9.6c0.1-1.8-0.5-2.4-2.3-2.2c-0.4,0.1-0.9,0-1.3,0c-3.9-0.1-3.3,0.5-3.5-3.3
		c-0.1-2.3,0.4-3.2,3-3.1c5.1,0.2,10.3,0.1,15.4,0c1.9,0,2.6,0.5,2.4,2.4c-0.1,0.7-0.1,1.4,0,2.1c0.2,1.5-0.5,1.9-2,2
		c-5,0.1-5,0.1-5,5.2c0,5.5-0.1,11,0,16.5c0,1.8-0.5,2.5-2.4,2.4c-5.2-0.2-4.2,0.6-4.3-4.4C195.2,23.8,195.3,21.2,195.3,18.5z"/>
	<path class="st0" d="M7.3,18.8c0-3.3-0.1-6.6,0-9.8c0.1-1.7-0.4-2.5-2.2-2.2C4.4,6.8,3.7,6.6,3,6.7c-2.5,0.5-3.2-0.6-3-3
		c0.2-3.3,0-3.4,3.5-3.4c5,0,10.1,0.1,15.1,0c1.8,0,2.4,0.6,2.2,2.3c-0.1,0.7-0.1,1.4,0,2.1c0.2,1.7-0.5,2.1-2.1,2.1c-5,0-5,0.1-5,5
		c0,5.6-0.1,11.2,0,16.7c0,1.9-0.5,2.6-2.4,2.4c-0.7-0.1-1.4-0.1-2.1,0c-1.5,0.2-2-0.5-2-2C7.4,25.5,7.3,22.1,7.3,18.8z"/>
</g>
</svg>
